# File created by Blade
# Date/Time:  Wed Jan 21 18:40:15 2015
#---------------------------------------------------------
:version 1.10
:name HOM
:units
  mass 1.0
  length 1.000000
  angle deg
:documentation
     Acclaim Skeleton File
:root
   axis xyz
   order TX TY TZ RX RY RZ
   position 0.000000 0.000000 0.000000
   orientation 0 0 0
:bonedata
   begin
      id 1
      name RightUpLeg_dum
      direction -1.000000 0.000000 0.000000
      length 3.693983
      axis 0.0 0.0 0.0 xyz
   end
   begin
      id 2
      name LeftUpLeg_dum
      direction 1.000000 0.000000 0.000000
      length 3.693983
      axis 0.0 0.0 0.0 xyz
   end
   begin
      id 3
      name Spine_dum
      direction 0.000000 1.000000 0.000000
      length 2.392956
      axis 0.0 0.0 0.0 xyz
   end
   begin
      id 4
      name RightUpLeg
      direction 0.000000 -1.000000 0.000000
      length 15.795667
      axis 0.0 0.0 0.0 xyz
      dof rx ry rz
   end
   begin
      id 5
      name RightLeg
      direction 0.000000 -1.000000 0.000000
      length 14.766989
      axis 0.0 0.0 0.0 xyz
      dof rx ry rz
   end
   begin
      id 6
      name RightFoot
      direction 0.000000 -0.258819 0.965926
      length 4.962790
      axis 15.0 0.0 0.0 xyz
      dof rx ry rz
   end
   begin
      id 7
      name RightToeBase
      direction 0.000000 0.000000 1.000000
      length 2.952750
      axis 0.0 0.0 0.0 xyz
      dof rx ry rz
   end
   begin
      id 8
      name LeftUpLeg
      direction 0.000000 -1.000000 0.000000
      length 15.795667
      axis 0.0 0.0 0.0 xyz
      dof rx ry rz
   end
   begin
      id 9
      name LeftLeg
      direction 0.000000 -1.000000 0.000000
      length 14.766989
      axis 0.0 0.0 0.0 xyz
      dof rx ry rz
   end
   begin
      id 10
      name LeftFoot
      direction 0.000000 -0.258819 0.965926
      length 4.962790
      axis 15.0 0.0 0.0 xyz
      dof rx ry rz
   end
   begin
      id 11
      name LeftToeBase
      direction 0.000000 0.000000 1.000000
      length 2.952750
      axis 0.0 0.0 0.0 xyz
      dof rx ry rz
   end
   begin
      id 12
      name Spine
      direction 0.000000 1.000000 0.000000
      length 0.000000
      axis 0.0 0.0 0.0 xyz
      dof rx ry rz
   end
   begin
      id 13
      name Spine_dum1
      direction 0.000000 1.000000 0.000000
      length 13.207411
      axis 0.0 0.0 0.0 xyz
   end
   begin
      id 14
      name Spine_dum2
      direction 0.000000 1.000000 0.000000
      length 13.207411
      axis 0.0 0.0 0.0 xyz
   end
   begin
      id 15
      name Spine_dum3
      direction 0.000000 1.000000 0.000000
      length 19.250100
      axis 0.0 0.0 0.0 xyz
   end
   begin
      id 16
      name RightShoulder
      direction -1.000000 0.000000 0.000000
      length 8.140465
      axis 0.0 0.0 90.0 xyz
      dof rx ry rz
   end
   begin
      id 17
      name RightArm
      direction -1.000000 0.000000 0.000000
      length 10.649840
      axis 0.0 0.0 90.0 xyz
      dof rx ry rz
   end
   begin
      id 18
      name RightForeArm
      direction -1.000000 0.000000 0.000000
      length 8.304624
      axis 0.0 0.0 90.0 xyz
      dof ry rz rx
   end
   begin
      id 19
      name RightHand
      direction -1.000000 0.000000 0.000000
      length 0.000000
      axis 0.0 0.0 90.0 xyz
      dof rx ry rz
   end
   begin
      id 20
      name RightHand_dum1
      direction -1.000000 0.000000 0.000000
      length 3.937000
      axis 0.0 0.0 90.0 xyz
   end
   begin
      id 21
      name RightHand_dum2
      direction 0.000000 0.000000 0.000000
      length 0.000000
      axis 0.0 0.0 90.0 xyz
   end
   begin
      id 22
      name RightHandThumb1
      direction 0.000000 0.000000 1.000000
      length 3.937000
      axis 0.0 0.0 90.0 xyz
      dof rx rz ry
   end
   begin
      id 23
      name LeftShoulder
      direction 1.000000 0.000000 0.000000
      length 8.140465
      axis 0.0 0.0 -90.0 xyz
      dof rx ry rz
   end
   begin
      id 24
      name LeftArm
      direction 1.000000 0.000000 0.000000
      length 10.649840
      axis 0.0 0.0 -90.0 xyz
      dof rx ry rz
   end
   begin
      id 25
      name LeftForeArm
      direction 1.000000 0.000000 0.000000
      length 8.304624
      axis 0.0 0.0 -90.0 xyz
      dof ry rz rx
   end
   begin
      id 26
      name LeftHand
      direction 1.000000 0.000000 0.000000
      length 0.000000
      axis 0.0 0.0 -90.0 xyz
      dof rx ry rz
   end
   begin
      id 27
      name LeftHand_dum1
      direction 1.000000 0.000000 0.000000
      length 3.937000
      axis 0.0 0.0 -90.0 xyz
   end
   begin
      id 28
      name LeftHand_dum2
      direction 0.000000 0.000000 0.000000
      length 0.000000
      axis 0.0 0.0 -90.0 xyz
   end
   begin
      id 29
      name LeftHandThumb1
      direction 0.000000 0.000000 1.000000
      length 3.937000
      axis 0.0 0.0 -90.0 xyz
      dof rx rz ry
   end
   begin
      id 30
      name Head
      direction 0.000000 1.000000 0.000000
      length 4.527550
      axis 0.0 0.0 0.0 xyz
      dof rx ry rz
   end
:hierarchy
   begin
      root RightUpLeg_dum LeftUpLeg_dum Spine_dum
      RightUpLeg_dum RightUpLeg
      LeftUpLeg_dum LeftUpLeg
      Spine_dum Spine
      RightUpLeg RightLeg
      RightLeg RightFoot
      RightFoot RightToeBase
      LeftUpLeg LeftLeg
      LeftLeg LeftFoot
      LeftFoot LeftToeBase
      Spine Spine_dum1 Spine_dum2 Spine_dum3
      Spine_dum1 RightShoulder
      Spine_dum2 LeftShoulder
      Spine_dum3 Head
      RightShoulder RightArm
      RightArm RightForeArm
      RightForeArm RightHand
      RightHand RightHand_dum1 RightHand_dum2
      RightHand_dum2 RightHandThumb1
      LeftShoulder LeftArm
      LeftArm LeftForeArm
      LeftForeArm LeftHand
      LeftHand LeftHand_dum1 LeftHand_dum2
      LeftHand_dum2 LeftHandThumb1
   end

# File created by Blade
# Date/Time:  Wed Jan 21 18:40:08 2015
# Frame Rate: 120.000 fps
#------------------------------------------------------
:FULLY-SPECIFIED
:DEGREES
1935
root 0.872727 28.114247 -11.506665 107.253994 -17.604522 6.895670
RightUpLeg -124.304419 -29.284954 13.394522
RightLeg -10.043278 -0.000000 0.000000
RightFoot 5.088703 -7.430075 46.316669
RightToeBase 22.404557 -0.000000 -0.000000
LeftUpLeg -108.823494 13.654154 -27.137218
LeftLeg -8.851517 -0.000000 0.000000
LeftFoot 4.288864 6.735256 -24.138960
LeftToeBase 8.290179 -0.000000 -0.000000
Spine -30.358427 -6.359213 16.131447
RightShoulder -19.100278 11.572547 -38.828519
RightArm -9.715923 -25.348615 65.965755
RightForeArm 11.573334 -0.000000 -4.790358
RightHand 16.617379 -0.000000 -13.296472
RightHandThumb1 -24.326973 -0.000000 -32.862282
LeftShoulder -5.085774 -4.765588 35.818955
LeftArm 27.369130 20.918901 -70.213911
LeftForeArm 23.343177 -0.000000 50.187544
LeftHand -19.029181 0.000000 17.706720
LeftHandThumb1 -26.253704 0.000000 33.147579
Head -51.031761 26.747155 2.885723
1936
root 0.873704 28.114873 -11.497334 107.033278 -17.602728 6.926322
RightUpLeg -124.082621 -29.314423 13.373479
RightLeg -10.082686 -0.000000 0.000000
RightFoot 5.142552 -7.380235 46.358228
RightToeBase 22.387852 -0.000000 -0.000000
LeftUpLeg -108.627806 13.708792 -27.111339
LeftLeg -8.814943 -0.000000 0.000000
LeftFoot 4.275014 6.740614 -24.082995
LeftToeBase 8.300310 -0.000000 -0.000000
Spine -30.456105 -6.077607 16.036457
RightShoulder -19.077948 11.594366 -38.851571
RightArm -9.631978 -25.118746 65.854745
RightForeArm 11.676696 0.000000 -4.638589
RightHand 16.636550 -0.000000 -13.418003
RightHandThumb1 -24.326973 -0.000000 -32.862282
LeftShoulder -5.172945 -4.589361 35.792915
LeftArm 27.349783 21.420651 -70.215187
LeftForeArm 23.332901 0.000000 49.706445
LeftHand -18.864652 -0.000000 17.584419
LeftHandThumb1 -26.253704 0.000000 33.147579
Head -50.775322 26.431369 3.049881
1937
root 0.874161 28.115168 -11.490193 106.817732 -17.624267 6.956549
RightUpLeg -123.849582 -29.377323 13.286292
RightLeg -10.120832 -0.000000 0.000000
RightFoot 5.111285 -7.375211 46.441457
RightToeBase 22.589638 -0.000000 -0.000000
LeftUpLeg -108.431358 13.752407 -27.113643
LeftLeg -8.788877 -0.000000 0.000000
LeftFoot 4.270116 6.749745 -23.982906
LeftToeBase 8.296018 -0.000000 -0.000000
Spine -30.557082 -5.785996 15.901115
RightShoulder -19.093060 11.594152 -38.877766
RightArm -9.484117 -25.053225 65.778937
RightForeArm 11.858408 -0.000000 -4.557625
RightHand 16.670403 -0.000000 -13.589304
RightHandThumb1 -24.326973 -0.000000 -32.862282
LeftShoulder -5.230906 -4.374908 35.786759
LeftArm 27.367544 21.885306 -70.196905
LeftForeArm 23.317077 0.000000 49.225451
LeftHand -18.958030 0.000000 17.357157
LeftHandThumb1 -26.253704 0.000000 33.147579
Head -50.494413 26.086593 3.213273
1938
root 0.874834 28.114814 -11.482041 106.591367 -17.631341 7.010465
RightUpLeg -123.679228 -29.383873 13.327016
RightLeg -10.137399 -0.000000 0.000000
RightFoot 5.194613 -7.262547 46.419095
RightToeBase 22.542032 -0.000000 -0.000000
LeftUpLeg -108.213841 13.798307 -27.054461
LeftLeg -8.758963 -0.000000 0.000000
LeftFoot 4.256237 6.775686 -23.939714
LeftToeBase 8.301278 -0.000000 -0.000000
Spine -30.661283 -5.541276 15.814343
RightShoulder -19.057353 11.654559 -38.915192
RightArm -9.435944 -24.845367 65.705040
RightForeArm 11.578331 -0.000000 -4.282879
RightHand 16.510428 -0.000000 -14.202143
RightHandThumb1 -24.326973 -0.000000 -32.862282
LeftShoulder -5.330090 -4.334299 35.788108
LeftArm 27.142147 22.378335 -70.254210
LeftForeArm 23.252647 -0.000000 48.798666
LeftHand -18.987000 -0.000000 17.193955
LeftHandThumb1 -26.253704 0.000000 33.147579
Head -50.193017 25.757404 3.412032
1939
root 0.877504 28.114716 -11.472895 106.356055 -17.625747 7.085025
RightUpLeg -123.468559 -29.453979 13.344589
RightLeg -10.183448 -0.000000 0.000000
RightFoot 5.250989 -7.164126 46.430671
RightToeBase 22.615086 -0.000000 -0.000000
LeftUpLeg -107.985022 13.816869 -26.989195
LeftLeg -8.739330 -0.000000 0.000000
LeftFoot 4.319963 6.794630 -23.705000
LeftToeBase 8.090393 -0.000000 -0.000000
Spine -30.762328 -5.268131 15.714297
RightShoulder -19.060421 11.705595 -38.938312
RightArm -9.336150 -24.866749 65.626859
RightForeArm 11.667607 -0.000000 -4.150149
RightHand 16.595457 -0.000000 -14.426926
RightHandThumb1 -24.326973 -0.000000 -32.862282
LeftShoulder -5.365852 -4.209077 35.804215
LeftArm 26.966122 22.754022 -70.335158
LeftForeArm 23.226262 -0.000000 48.413571
LeftHand -18.789281 -0.000000 16.895093
LeftHandThumb1 -26.253704 0.000000 33.147579
Head -49.841851 25.375057 3.675921
1940
root 0.882544 28.117520 -11.463876 106.116359 -17.631422 7.166957
RightUpLeg -123.359752 -29.436404 13.486363
RightLeg -10.170047 -0.000000 0.000000
RightFoot 5.386837 -6.988806 46.431658
RightToeBase 22.711206 -0.000000 -0.000000
LeftUpLeg -107.750010 13.813769 -26.950998
LeftLeg -8.729454 -0.000000 0.000000
LeftFoot 4.280760 6.826420 -23.771077
LeftToeBase 8.288868 -0.000000 -0.000000
Spine -30.850347 -4.998476 15.608907
RightShoulder -19.052304 11.726168 -38.949954
RightArm -9.173744 -25.017586 65.526317
RightForeArm 11.923126 0.000000 -4.034976
RightHand 16.821863 -0.000000 -14.349721
RightHandThumb1 -24.326973 -0.000000 -32.862282
LeftShoulder -5.383201 -4.065181 35.797496
LeftArm 26.810617 23.081375 -70.378244
LeftForeArm 23.141270 -0.000000 48.026552
LeftHand -18.725436 0.000000 16.810066
LeftHandThumb1 -26.253704 0.000000 33.147579
Head -49.504924 25.019975 3.864027
1941
root 0.886788 28.116168 -11.454836 105.856259 -17.606739 7.299679
RightUpLeg -123.126590 -29.556047 13.543423
RightLeg -10.286425 -0.000000 0.000000
RightFoot 5.449141 -6.928666 46.475257
RightToeBase 22.750327 -0.000000 -0.000000
LeftUpLeg -107.497389 13.782330 -26.849189
LeftLeg -8.703537 -0.000000 0.000000
LeftFoot 4.367024 6.812555 -23.489713
LeftToeBase 7.994535 -0.000000 -0.000000
Spine -30.954088 -4.775362 15.552722
RightShoulder -19.018663 11.837329 -38.988025
RightArm -9.137275 -25.223515 65.512356
RightForeArm 11.655284 -0.000000 -3.906871
RightHand 16.735523 -0.000000 -14.990000
RightHandThumb1 -24.326973 -0.000000 -32.862282
LeftShoulder -5.421070 -3.739123 35.804634
LeftArm 26.848821 23.350065 -70.354274
LeftForeArm 22.926539 -0.000000 47.565076
LeftHand -18.593555 -0.000000 16.631322
LeftHandThumb1 -26.253704 0.000000 33.147579
Head -49.118813 24.642141 4.108989
1942
root 0.890756 28.117583 -11.447347 105.653813 -17.615818 7.373698
RightUpLeg -122.990064 -29.590441 13.608344
RightLeg -10.320420 -0.000000 0.000000
RightFoot 5.543111 -6.816031 46.492002
RightToeBase 22.849139 -0.000000 -0.000000
LeftUpLeg -107.297554 13.776764 -26.813212
LeftLeg -8.685253 -0.000000 0.000000
LeftFoot 4.257252 6.812944 -23.652158
LeftToeBase 8.350088 -0.000000 -0.000000
Spine -31.079919 -4.492052 15.434806
RightShoulder -18.961496 11.943390 -39.040569
RightArm -9.101340 -25.334681 65.505677
RightForeArm 11.613973 -0.000000 -3.773832
RightHand 16.784145 -0.000000 -15.179780
RightHandThumb1 -24.326973 -0.000000 -32.862282
LeftShoulder -5.419803 -3.662755 35.789205
LeftArm 26.573347 23.586647 -70.430121
LeftForeArm 22.776693 -0.000000 47.219117
LeftHand -18.505203 -0.000000 16.491914
LeftHandThumb1 -26.253704 0.000000 33.147579
Head -48.703194 24.230991 4.376202
1943
root 0.892400 28.118554 -11.440822 105.459924 -17.660487 7.448186
RightUpLeg -122.893846 -29.621832 13.651600
RightLeg -10.311562 -0.000000 0.000000
RightFoot 5.633391 -6.655838 46.443690
RightToeBase 22.878785 -0.000000 -0.000000
LeftUpLeg -107.097143 13.760087 -26.830391
LeftLeg -8.677958 -0.000000 0.000000
LeftFoot 4.287622 6.774990 -23.598953
LeftToeBase 8.302658 -0.000000 -0.000000
Spine -31.210994 -4.232697 15.270241
RightShoulder -18.886340 11.979539 -39.055114
RightArm -8.966236 -25.152318 65.428724
RightForeArm 11.339457 0.000000 -3.664176
RightHand 16.989176 -0.000000 -15.553216
RightHandThumb1 -24.326973 -0.000000 -32.862282
LeftShoulder -5.424001 -3.504940 35.786780
LeftArm 26.371998 23.770359 -70.452588
LeftForeArm 22.606375 -0.000000 46.910481
LeftHand -18.670230 -0.000000 16.290423
LeftHandThumb1 -26.253704 0.000000 33.147579
Head -48.305288 23.875531 4.642943
1944
root 0.897203 28.116773 -11.434085 105.243127 -17.692769 7.573366
RightUpLeg -122.702298 -29.807885 13.580979
RightLeg -10.364368 -0.000000 0.000000
RightFoot 5.621145 -6.629912 46.496560
RightToeBase 22.900697 -0.000000 -0.000000
LeftUpLeg -106.862768 13.700074 -26.806719
LeftLeg -8.684819 -0.000000 0.000000
LeftFoot 4.301265 6.786527 -23.506166
LeftToeBase 8.318391 -0.000000 -0.000000
Spine -31.342661 -3.989014 15.129264
RightShoulder -18.842030 12.020877 -39.087867
RightArm -8.865448 -25.060521 65.359667
RightForeArm 11.167251 0.000000 -3.494613
RightHand 17.105732 -0.000000 -16.105068
RightHandThumb1 -24.326973 -0.000000 -32.862282
LeftShoulder -5.445355 -3.410021 35.771878
LeftArm 26.162727 23.982440 -70.456547
LeftForeArm 22.293233 -0.000000 46.533375
LeftHand -18.539247 -0.000000 16.230663
LeftHandThumb1 -26.253704 0.000000 33.147579
Head -47.919051 23.476223 4.849100
1945
root 0.901094 28.117834 -11.424506 105.004196 -17.685368 7.651386
RightUpLeg -122.476674 -29.873879 13.601385
RightLeg -10.449363 -0.000000 0.000000
RightFoot 5.676653 -6.562700 46.436991
RightToeBase 23.013369 -0.000000 -0.000000
LeftUpLeg -106.618986 13.706418 -26.756360
LeftLeg -8.690846 -0.000000 0.000000
LeftFoot 4.314780 6.777653 -23.437929
LeftToeBase 8.283171 -0.000000 -0.000000
Spine -31.392939 -3.728440 15.018676
RightShoulder -18.819756 12.064421 -39.080811
RightArm -8.698805 -25.140396 65.288894
RightForeArm 11.312705 -0.000000 -3.365129
RightHand 17.341483 0.000000 -16.276680
RightHandThumb1 -24.326973 -0.000000 -32.862282
LeftShoulder -5.604367 -3.341886 35.732476
LeftArm 26.087825 24.274728 -70.382094
LeftForeArm 22.019771 -0.000000 46.027029
LeftHand -18.471125 -0.000000 16.173077
LeftHandThumb1 -26.253704 0.000000 33.147579
Head -47.624333 23.137550 5.046521
1946
root 0.905768 28.119349 -11.417309 104.779853 -17.688852 7.730370
RightUpLeg -122.285535 -29.933078 13.622505
RightLeg -10.507354 -0.000000 0.000000
RightFoot 5.790870 -6.496290 46.267921
RightToeBase 22.953305 -0.000000 -0.000000
LeftUpLeg -106.398746 13.700780 -26.720704
LeftLeg -8.677328 -0.000000 0.000000
LeftFoot 4.325564 6.748472 -23.373702
LeftToeBase 8.281958 -0.000000 -0.000000
Spine -31.456059 -3.415316 14.858363
RightShoulder -18.836957 12.123245 -39.098552
RightArm -8.614577 -25.055538 65.217166
RightForeArm 11.291822 -0.000000 -3.167445
RightHand 17.434858 0.000000 -16.698187
RightHandThumb1 -24.326973 -0.000000 -32.862282
LeftShoulder -5.605590 -3.194618 35.696994
LeftArm 25.995968 24.370857 -70.331501
LeftForeArm 21.853862 0.000000 45.658894
LeftHand -18.418298 -0.000000 16.036524
LeftHandThumb1 -26.253704 0.000000 33.147579
Head -47.268214 22.724282 5.266104
